<svg width="15" height="16" viewBox="0 0 15 16" fill="none" xmlns="http://www.w3.org/2000/svg">
<path d="M1.21221 10.9768C1.56006 10.7971 3.25755 9.89825 3.56366 9.76343C3.88368 9.64359 4.1063 9.58366 4.34284 9.94319C4.57937 10.3177 5.23333 11.1566 5.42812 11.3963C5.62292 11.6509 5.83163 11.6809 6.17947 11.4862C6.52732 11.3064 7.64044 10.9019 8.94835 9.64359C9.97798 8.65489 10.6598 7.44149 10.8685 7.06699C11.0633 6.69248 10.8963 6.49774 10.7154 6.303C10.5624 6.13821 10.3676 5.86857 10.2006 5.65885C10.0336 5.44912 9.96406 5.28434 9.85275 5.04466C9.74144 4.78999 9.79709 4.58027 9.88058 4.40051C9.96406 4.22075 10.6598 2.39316 10.938 1.64415C11.2163 0.925099 11.5085 1.01498 11.7172 1H12.3851C12.6216 1 12.9834 1.08988 13.3034 1.46439C13.6095 1.83889 14.5 2.73771 14.5 4.56529C14.5 6.39288 13.2617 8.16055 13.0947 8.40023C12.9277 8.65489 10.6598 12.3999 7.20911 14.0028C6.38818 14.3923 5.74814 14.617 5.24724 14.7818C4.42632 15.0664 3.67497 15.0215 3.07667 14.9316C2.4088 14.8267 1.03133 14.0328 0.753047 13.1639C0.460854 12.2951 0.460853 11.5611 0.558251 11.3963C0.655648 11.2315 0.864359 11.1566 1.21221 10.9768Z" stroke="#F8F8F8"/>
</svg>
